<svg width="16" height="16" viewBox="0 0 16 16" fill="none" xmlns="http://www.w3.org/2000/svg">
  <path d="M8 0C3.58 0 0 3.58 0 8C0 11.54 2.29 14.53 5.47 15.59C5.87 15.66 6.02 15.42 6.02 15.21C6.02 15.02 6.01 14.39 6.01 13.72C4 14.09 3.48 13.23 3.48 13.23C3.17 12.62 2.63 12.4 2.63 12.4C2.08 12.14 2.68 12.15 2.68 12.15C3.31 12.21 3.77 12.77 3.77 12.77C4.39 13.39 5.21 13.18 6.03 13.01C6.1 12.79 6.33 12.63 6.57 12.23C3.83 11.92 2.33 10.77 2.33 7.71C2.33 6.82 2.65 6.12 3.16 5.61C3.05 5.38 2.7 4.17 3.27 3.11C3.27 3.11 4.05 2.91 6.01 4.07C6.67 3.91 7.34 3.82 8.01 3.82C8.68 3.82 9.35 3.91 10.01 4.07C11.97 2.91 12.75 3.11 12.75 3.11C13.32 4.17 12.97 5.38 12.86 5.61C13.37 6.12 13.69 6.82 13.69 7.71C13.69 10.77 12.19 11.92 9.46 12.23C9.81 12.53 10.11 13.09 10.11 14.01C10.11 14.92 10.11 15.81 10.11 15.21C10.11 15.43 10.26 15.67 10.66 15.59C13.86 14.53 16 11.53 16 8C16 3.58 12.42 0 8 0Z" fill="white"/>
</svg>
